<svg width="46" height="46" viewBox="0 0 46 46" fill="none" xmlns="http://www.w3.org/2000/svg">
<path d="M11.2125 32.775C12.8417 31.5292 14.6625 30.5472 16.675 29.8291C18.6875 29.111 20.7958 28.7513 23 28.75C25.2042 28.7487 27.3125 29.1084 29.325 29.8291C31.3375 30.5498 33.1583 31.5317 34.7875 32.775C35.9056 31.4653 36.7764 29.9799 37.3999 28.3188C38.0235 26.6576 38.3346 24.8847 38.3333 23C38.3333 18.7514 36.8403 15.1334 33.8541 12.1459C30.8679 9.15848 27.2499 7.6654 23 7.66668C18.7501 7.66795 15.1321 9.16168 12.1459 12.1478C9.15976 15.134 7.66668 18.7514 7.66668 23C7.66668 24.8847 7.97846 26.6576 8.60201 28.3188C9.22557 29.9799 10.0957 31.4653 11.2125 32.775ZM23 24.9167C21.1153 24.9167 19.5257 24.2701 18.2313 22.977C16.937 21.6839 16.2904 20.0943 16.2917 18.2083C16.293 16.3223 16.9401 14.7328 18.2333 13.4397C19.5264 12.1466 21.1153 11.5 23 11.5C24.8847 11.5 26.4743 12.1472 27.7687 13.4416C29.0631 14.736 29.7096 16.3249 29.7083 18.2083C29.7071 20.0918 29.0605 21.6813 27.7687 22.977C26.4768 24.2727 24.8873 24.9192 23 24.9167ZM23 42.1667C20.3486 42.1667 17.857 41.6632 15.525 40.6563C13.1931 39.6495 11.1646 38.2841 9.4396 36.5604C7.7146 34.8367 6.34929 32.8082 5.34368 30.475C4.33807 28.1418 3.83462 25.6501 3.83335 23C3.83207 20.3499 4.33551 17.8582 5.34368 15.525C6.35185 13.1918 7.71715 11.1633 9.4396 9.43959C11.162 7.71587 13.1905 6.35057 15.525 5.34368C17.8595 4.33679 20.3512 3.83334 23 3.83334C25.6488 3.83334 28.1405 4.33679 30.475 5.34368C32.8095 6.35057 34.838 7.71587 36.5604 9.43959C38.2829 11.1633 39.6488 13.1918 40.6583 15.525C41.6677 17.8582 42.1705 20.3499 42.1667 23C42.1628 25.6501 41.6594 28.1418 40.6563 30.475C39.6533 32.8082 38.288 34.8367 36.5604 36.5604C34.8329 38.2841 32.8044 39.6501 30.475 40.6583C28.1456 41.6664 25.654 42.1692 23 42.1667ZM23 38.3333C24.6931 38.3333 26.2903 38.0861 27.7917 37.5916C29.2931 37.0971 30.6667 36.386 31.9125 35.4583C30.6667 34.532 29.2931 33.8215 27.7917 33.327C26.2903 32.8325 24.6931 32.5846 23 32.5833C21.307 32.5821 19.7097 32.83 18.2083 33.327C16.707 33.8241 15.3333 34.5345 14.0875 35.4583C15.3333 36.3847 16.707 37.0958 18.2083 37.5916C19.7097 38.0874 21.307 38.3346 23 38.3333ZM23 21.0833C23.8306 21.0833 24.5174 20.8118 25.0604 20.2688C25.6035 19.7257 25.875 19.0389 25.875 18.2083C25.875 17.3778 25.6035 16.691 25.0604 16.1479C24.5174 15.6049 23.8306 15.3333 23 15.3333C22.1695 15.3333 21.4826 15.6049 20.9396 16.1479C20.3965 16.691 20.125 17.3778 20.125 18.2083C20.125 19.0389 20.3965 19.7257 20.9396 20.2688C21.4826 20.8118 22.1695 21.0833 23 21.0833Z" fill="#425184"/>
</svg>
