<svg width="41" height="40" viewBox="0 0 41 40" fill="none" xmlns="http://www.w3.org/2000/svg">
<path d="M11.9583 36.6667C11.0187 36.6667 10.2147 36.3406 9.54615 35.6883C8.87762 35.0361 8.54279 34.2511 8.54165 33.3333C8.54051 32.4156 8.87535 31.6311 9.54615 30.98C10.217 30.3289 11.021 30.0022 11.9583 30C12.8956 29.9978 13.7002 30.3245 14.3722 30.98C15.0441 31.6356 15.3784 32.42 15.375 33.3333C15.3716 34.2467 15.0373 35.0317 14.3722 35.6883C13.7071 36.345 12.9025 36.6711 11.9583 36.6667ZM29.0417 36.6667C28.1021 36.6667 27.298 36.3406 26.6295 35.6883C25.961 35.0361 25.6261 34.2511 25.625 33.3333C25.6238 32.4156 25.9587 31.6311 26.6295 30.98C27.3003 30.3289 28.1043 30.0022 29.0417 30C29.979 29.9978 30.7836 30.3245 31.4555 30.98C32.1275 31.6356 32.4617 32.42 32.4583 33.3333C32.4549 34.2467 32.1206 35.0317 31.4555 35.6883C30.7904 36.345 29.9858 36.6711 29.0417 36.6667ZM10.5062 10L14.6062 18.3333H26.5646L31.2625 10H10.5062ZM8.88332 6.66668H34.0812C34.7361 6.66668 35.2344 6.95168 35.576 7.52168C35.9177 8.09168 35.9319 8.66779 35.6187 9.25001L29.5542 19.9167C29.241 20.4722 28.8213 20.9028 28.2951 21.2083C27.7689 21.5139 27.1921 21.6667 26.5646 21.6667H13.8375L11.9583 25H30.75C31.234 25 31.64 25.16 31.968 25.48C32.296 25.8 32.4595 26.1956 32.4583 26.6667C32.4572 27.1378 32.2932 27.5339 31.9663 27.855C31.6395 28.1761 31.234 28.3356 30.75 28.3333H11.9583C10.6771 28.3333 9.70901 27.785 9.05415 26.6883C8.39929 25.5917 8.37082 24.5011 8.96874 23.4167L11.275 19.3333L5.12499 6.66668H3.41665C2.93262 6.66668 2.52718 6.50668 2.20032 6.18668C1.87346 5.86668 1.70946 5.47112 1.70832 5.00001C1.70718 4.5289 1.87118 4.13334 2.20032 3.81334C2.52946 3.49334 2.9349 3.33334 3.41665 3.33334H6.19269C6.50589 3.33334 6.80485 3.41668 7.08957 3.58334C7.37429 3.75001 7.58783 3.98612 7.73019 4.29168L8.88332 6.66668Z" fill="#425184"/>
</svg>
