<svg width="41" height="41" viewBox="0 0 41 41" fill="none" xmlns="http://www.w3.org/2000/svg">
<path d="M20.5 41C9.19628 41 0 31.8038 0 20.5C0 9.19634 9.19628 -1.25395e-06 20.5 -1.25395e-06C31.8037 -1.25395e-06 41 9.19634 41 20.5C40.9999 31.8038 31.8037 41 20.5 41ZM32.2601 18.3389C32.2601 17.756 31.7859 17.2818 31.203 17.2818H9.66483C9.08198 17.2818 8.60774 17.756 8.60774 18.3389V22.5673C8.60774 23.1501 9.08198 23.6244 9.66483 23.6244H31.203C31.7859 23.6244 32.2601 23.1501 32.2601 22.5673V18.3389Z" fill="black"/>
</svg>
